<?xml version="1.0" encoding="UTF-8"?>
<svg xmlns="http://www.w3.org/2000/svg" style="display:none">

  <!-- EDIT ICON (Stroked) -->
  <symbol id="icon-edit" viewBox="0 0 24 24">
    <path d="M12 20h9" stroke="currentColor" stroke-width="2" stroke-linecap="round" fill="none"/>
    <path d="M16.5 3.5a2.12 2.12 0 013 3L7 19l-4 1 1-4 12.5-12.5z" stroke="currentColor" stroke-width="2" stroke-linecap="round" stroke-linejoin="round" fill="none"/>
  </symbol>

  <!-- SETTINGS ICON (Stroked) -->
  <symbol id="icon-settings" viewBox="0 0 24 24">
    <circle cx="12" cy="12" r="3" stroke="currentColor" stroke-width="2" fill="none"/>
    <path d="M19.4 15a1.65 1.65 0 00.33 1.82l.06.06a2 2 0 01-2.83 2.83l-.06-.06 a1.65 1.65 0 00-1.82-.33 1.65 1.65 0 00-1 1.51V21a2 2 0 01-4 0v-.09 a1.65 1.65 0 00-1-1.51 1.65 1.65 0 00-1.82.33l-.06.06a2 2 0 01-2.83-2.83 l.06-.06a1.65 1.65 0 00.33-1.82 1.65 1.65 0 00-1.51-1H3a2 2 0 010-4h.09 a1.65 1.65 0 001.51-1 1.65 1.65 0 00-.33-1.82l-.06-.06a2 2 0 012.83-2.83 l.06.06a1.65 1.65 0 001.82.33H9a1.65 1.65 0 001-1.51V3a2 2 0 014 0v.09 a1.65 1.65 0 001 1.51 1.65 1.65 0 001.82-.33l.06-.06a2 2 0 012.83 2.83 l-.06.06a1.65 1.65 0 00-.33 1.82V9c0 .66.39 1.26 1 1.51H21a2 2 0 010 4h-.09 a1.65 1.65 0 00-1.51 1z" stroke="currentColor" stroke-width="2" stroke-linecap="round" stroke-linejoin="round" fill="none"/>
  </symbol>

  <!-- LOGOUT ICON (Stroked) -->
  <symbol id="icon-logout" viewBox="0 0 24 24">
    <path d="M9 21H5a2 2 0 01-2-2V5a2 2 0 012-2h4" stroke="currentColor" stroke-width="2" stroke-linecap="round" stroke-linejoin="round" fill="none"/>
    <path d="M16 17l5-5-5-5" stroke="currentColor" stroke-width="2" stroke-linecap="round" stroke-linejoin="round" fill="none"/>
    <path d="M21 12H9" stroke="currentColor" stroke-width="2" stroke-linecap="round" stroke-linejoin="round" fill="none"/>
  </symbol>

  <!-- MESSAGE / CHAT ICON (Stroked) -->
  <symbol id="icon-message" viewBox="0 0 24 24">
    <path d="M20 2H4c-1.1 0-2 .9-2 2v14l4-4h14c1.1 0 2-.9 2-2V4c0-1.1-.9-2-2-2z" stroke="currentColor" stroke-width="2" stroke-linecap="round" stroke-linejoin="round" fill="none"/>
  </symbol>

  <!-- BELL / NOTIFICATION ICON (Stroked) -->
  <symbol id="icon-bell" viewBox="0 0 24 24">
    <path d="M18 8a6 6 0 00-12 0v7l-2 2v1h16v-1l-2-2V8z" stroke="currentColor" stroke-width="2" stroke-linecap="round" stroke-linejoin="round" fill="none"/>
    <path d="M9.26 21h5.48" stroke="currentColor" stroke-width="2" stroke-linecap="round" stroke-linejoin="round" fill="none"/>
  </symbol>

</svg>
